<svg xmlns="http://www.w3.org/2000/svg" width="1100" height="770" viewBox="0 0 1100 770">
<style><![CDATA[
text { font-family: "Nimbus Roman", "Liberation Serif", serif; }
.tick { fill: #4a4a4a; font-size: 12px; }
.panel-title { fill: #111111; font-size: 17px; font-weight: 700; }
.panel-note { fill: #666666; font-size: 12px; }
.legend-text { fill: #202020; font-size: 14px; }
]]></style>
<rect x="0" y="0" width="1100" height="770" fill="white" />
<line x1="132" y1="48.0" x2="182" y2="48.0" stroke="#8c2d04" stroke-width="3.0" stroke-linecap="round" />
<circle cx="157.0" cy="48.0" r="4.8" fill="white" stroke="#8c2d04" stroke-width="2.2" />
<text x="194.0" y="53.0" font-size="14" font-weight="600" text-anchor="start" fill="#111111" class="legend-text">Single</text>
<line x1="410" y1="48.0" x2="460" y2="48.0" stroke="#16697a" stroke-width="3.0" stroke-linecap="round" stroke-dasharray="10 6" />
<rect x="430.5" y="43.5" width="9.0" height="9.0" fill="white" stroke="#16697a" stroke-width="2.0" />
<text x="472.0" y="53.0" font-size="14" font-weight="600" text-anchor="start" fill="#111111" class="legend-text">Dual: same-provider</text>
<line x1="738" y1="48.0" x2="788" y2="48.0" stroke="#c77600" stroke-width="3.0" stroke-linecap="round" stroke-dasharray="3 5" />
<polygon points="763.0,42.7 768.3,48.0 763.0,53.3 757.7,48.0" fill="white" stroke="#c77600" stroke-width="2.0" />
<text x="800.0" y="53.0" font-size="14" font-weight="600" text-anchor="start" fill="#111111" class="legend-text">Dual: cross-provider</text>
<text x="26.0" y="385.0" font-size="16" font-weight="700" text-anchor="start" fill="#111111" transform="rotate(-90 26 385)">Leakage-free conversations (%)</text>
<text x="550.0" y="758.0" font-size="16" font-weight="700" text-anchor="middle" fill="#111111">Student-visible turn</text>
<text x="1076.0" y="758.0" font-size="12" font-weight="400" text-anchor="end" fill="#666666">Y-axis truncated to 75-100% to show late-turn divergence.</text>
<rect x="72.0" y="106.0" width="478.0" height="277.0" rx="14" ry="14" fill="#fbfbfb" stroke="#d9d9d9" stroke-width="1.2" />
<rect x="126.0" y="156.0" width="348.0" height="189.0" fill="white" stroke="#e0e0e0" stroke-width="1.0" />
<text x="90.0" y="134.0" font-size="17" font-weight="700" text-anchor="start" fill="#111111" class="panel-title">GPT tutor / CSBench</text>
<text x="532.0" y="134.0" font-size="12" font-weight="400" text-anchor="end" fill="#666666" class="panel-note">n = 644</text>
<line x1="126.0" y1="345.0" x2="474.0" y2="345.0" stroke="#ececec" stroke-width="1.0" />
<text x="116.0" y="349.0" font-size="12" font-weight="400" text-anchor="end" fill="#555555">75</text>
<line x1="126.0" y1="307.2" x2="474.0" y2="307.2" stroke="#ececec" stroke-width="1.0" />
<text x="116.0" y="311.2" font-size="12" font-weight="400" text-anchor="end" fill="#555555">80</text>
<line x1="126.0" y1="269.4" x2="474.0" y2="269.4" stroke="#ececec" stroke-width="1.0" />
<text x="116.0" y="273.4" font-size="12" font-weight="400" text-anchor="end" fill="#555555">85</text>
<line x1="126.0" y1="231.6" x2="474.0" y2="231.6" stroke="#ececec" stroke-width="1.0" />
<text x="116.0" y="235.6" font-size="12" font-weight="400" text-anchor="end" fill="#555555">90</text>
<line x1="126.0" y1="193.8" x2="474.0" y2="193.8" stroke="#ececec" stroke-width="1.0" />
<text x="116.0" y="197.8" font-size="12" font-weight="400" text-anchor="end" fill="#555555">95</text>
<line x1="126.0" y1="156.0" x2="474.0" y2="156.0" stroke="#ececec" stroke-width="1.0" />
<text x="116.0" y="160.0" font-size="12" font-weight="400" text-anchor="end" fill="#555555">100</text>
<line x1="126.0" y1="156.0" x2="126.0" y2="345.0" stroke="#f3f3f3" stroke-width="1.0" />
<line x1="126.0" y1="345.0" x2="126.0" y2="350.0" stroke="#777777" stroke-width="1.1" />
<text x="126.0" y="365.0" font-size="12" font-weight="400" text-anchor="middle" fill="#555555">1</text>
<line x1="195.6" y1="156.0" x2="195.6" y2="345.0" stroke="#f3f3f3" stroke-width="1.0" />
<line x1="195.6" y1="345.0" x2="195.6" y2="350.0" stroke="#777777" stroke-width="1.1" />
<text x="195.6" y="365.0" font-size="12" font-weight="400" text-anchor="middle" fill="#555555">2</text>
<line x1="265.2" y1="156.0" x2="265.2" y2="345.0" stroke="#f3f3f3" stroke-width="1.0" />
<line x1="265.2" y1="345.0" x2="265.2" y2="350.0" stroke="#777777" stroke-width="1.1" />
<text x="265.2" y="365.0" font-size="12" font-weight="400" text-anchor="middle" fill="#555555">3</text>
<line x1="334.8" y1="156.0" x2="334.8" y2="345.0" stroke="#f3f3f3" stroke-width="1.0" />
<line x1="334.8" y1="345.0" x2="334.8" y2="350.0" stroke="#777777" stroke-width="1.1" />
<text x="334.8" y="365.0" font-size="12" font-weight="400" text-anchor="middle" fill="#555555">4</text>
<line x1="404.4" y1="156.0" x2="404.4" y2="345.0" stroke="#f3f3f3" stroke-width="1.0" />
<line x1="404.4" y1="345.0" x2="404.4" y2="350.0" stroke="#777777" stroke-width="1.1" />
<text x="404.4" y="365.0" font-size="12" font-weight="400" text-anchor="middle" fill="#555555">5</text>
<line x1="474.0" y1="156.0" x2="474.0" y2="345.0" stroke="#f3f3f3" stroke-width="1.0" />
<line x1="474.0" y1="345.0" x2="474.0" y2="350.0" stroke="#777777" stroke-width="1.1" />
<text x="474.0" y="365.0" font-size="12" font-weight="400" text-anchor="middle" fill="#555555">6</text>
<polyline points="126.0,181.8 195.6,206.5 265.2,227.6 334.8,244.0 404.4,259.3 474.0,275.7" fill="none" stroke="#8c2d04" stroke-width="3.0" stroke-linecap="round" stroke-linejoin="round" />
<circle cx="126.0" cy="181.8" r="4.8" fill="white" stroke="#8c2d04" stroke-width="2.2" />
<circle cx="195.6" cy="206.5" r="4.8" fill="white" stroke="#8c2d04" stroke-width="2.2" />
<circle cx="265.2" cy="227.6" r="4.8" fill="white" stroke="#8c2d04" stroke-width="2.2" />
<circle cx="334.8" cy="244.0" r="4.8" fill="white" stroke="#8c2d04" stroke-width="2.2" />
<circle cx="404.4" cy="259.3" r="4.8" fill="white" stroke="#8c2d04" stroke-width="2.2" />
<circle cx="474.0" cy="275.7" r="4.8" fill="white" stroke="#8c2d04" stroke-width="2.2" />
<line x1="477.0" y1="275.7" x2="480.0" y2="275.7" stroke="#8c2d04" stroke-width="1.6" />
<text x="486.0" y="279.7" font-size="13" font-weight="700" text-anchor="start" fill="#8c2d04">84.2%</text>
<polyline points="126.0,160.7 195.6,172.4 265.2,177.1 334.8,180.7 404.4,181.8 474.0,184.2" fill="none" stroke="#16697a" stroke-width="3.0" stroke-linecap="round" stroke-linejoin="round" stroke-dasharray="10 6" />
<rect x="121.5" y="156.2" width="9.0" height="9.0" fill="white" stroke="#16697a" stroke-width="2.0" />
<rect x="191.1" y="167.9" width="9.0" height="9.0" fill="white" stroke="#16697a" stroke-width="2.0" />
<rect x="260.7" y="172.6" width="9.0" height="9.0" fill="white" stroke="#16697a" stroke-width="2.0" />
<rect x="330.3" y="176.2" width="9.0" height="9.0" fill="white" stroke="#16697a" stroke-width="2.0" />
<rect x="399.9" y="177.3" width="9.0" height="9.0" fill="white" stroke="#16697a" stroke-width="2.0" />
<rect x="469.5" y="179.7" width="9.0" height="9.0" fill="white" stroke="#16697a" stroke-width="2.0" />
<line x1="477.0" y1="184.2" x2="480.0" y2="184.2" stroke="#16697a" stroke-width="1.6" />
<text x="486.0" y="188.2" font-size="13" font-weight="700" text-anchor="start" fill="#16697a">96.3%</text>
<polyline points="126.0,164.2 195.6,168.9 265.2,173.6 334.8,178.3 404.4,183.0 474.0,187.7" fill="none" stroke="#c77600" stroke-width="3.0" stroke-linecap="round" stroke-linejoin="round" stroke-dasharray="3 5" />
<polygon points="126.0,158.9 131.3,164.2 126.0,169.5 120.7,164.2" fill="white" stroke="#c77600" stroke-width="2.0" />
<polygon points="195.6,163.6 200.9,168.9 195.6,174.2 190.3,168.9" fill="white" stroke="#c77600" stroke-width="2.0" />
<polygon points="265.2,168.3 270.5,173.6 265.2,178.9 259.9,173.6" fill="white" stroke="#c77600" stroke-width="2.0" />
<polygon points="334.8,173.0 340.1,178.3 334.8,183.6 329.5,178.3" fill="white" stroke="#c77600" stroke-width="2.0" />
<polygon points="404.4,177.7 409.7,183.0 404.4,188.3 399.1,183.0" fill="white" stroke="#c77600" stroke-width="2.0" />
<polygon points="474.0,182.4 479.3,187.7 474.0,193.0 468.7,187.7" fill="white" stroke="#c77600" stroke-width="2.0" />
<line x1="477.0" y1="187.7" x2="480.0" y2="198.2" stroke="#c77600" stroke-width="1.6" />
<text x="486.0" y="202.2" font-size="13" font-weight="700" text-anchor="start" fill="#c77600">95.8%</text>
<rect x="594.0" y="106.0" width="478.0" height="277.0" rx="14" ry="14" fill="#fbfbfb" stroke="#d9d9d9" stroke-width="1.2" />
<rect x="648.0" y="156.0" width="348.0" height="189.0" fill="white" stroke="#e0e0e0" stroke-width="1.0" />
<text x="612.0" y="134.0" font-size="17" font-weight="700" text-anchor="start" fill="#111111" class="panel-title">GPT tutor / PeerWise</text>
<text x="1054.0" y="134.0" font-size="12" font-weight="400" text-anchor="end" fill="#666666" class="panel-note">n = 779</text>
<line x1="648.0" y1="345.0" x2="996.0" y2="345.0" stroke="#ececec" stroke-width="1.0" />
<line x1="648.0" y1="307.2" x2="996.0" y2="307.2" stroke="#ececec" stroke-width="1.0" />
<line x1="648.0" y1="269.4" x2="996.0" y2="269.4" stroke="#ececec" stroke-width="1.0" />
<line x1="648.0" y1="231.6" x2="996.0" y2="231.6" stroke="#ececec" stroke-width="1.0" />
<line x1="648.0" y1="193.8" x2="996.0" y2="193.8" stroke="#ececec" stroke-width="1.0" />
<line x1="648.0" y1="156.0" x2="996.0" y2="156.0" stroke="#ececec" stroke-width="1.0" />
<line x1="648.0" y1="156.0" x2="648.0" y2="345.0" stroke="#f3f3f3" stroke-width="1.0" />
<line x1="648.0" y1="345.0" x2="648.0" y2="350.0" stroke="#777777" stroke-width="1.1" />
<text x="648.0" y="365.0" font-size="12" font-weight="400" text-anchor="middle" fill="#555555">1</text>
<line x1="717.6" y1="156.0" x2="717.6" y2="345.0" stroke="#f3f3f3" stroke-width="1.0" />
<line x1="717.6" y1="345.0" x2="717.6" y2="350.0" stroke="#777777" stroke-width="1.1" />
<text x="717.6" y="365.0" font-size="12" font-weight="400" text-anchor="middle" fill="#555555">2</text>
<line x1="787.2" y1="156.0" x2="787.2" y2="345.0" stroke="#f3f3f3" stroke-width="1.0" />
<line x1="787.2" y1="345.0" x2="787.2" y2="350.0" stroke="#777777" stroke-width="1.1" />
<text x="787.2" y="365.0" font-size="12" font-weight="400" text-anchor="middle" fill="#555555">3</text>
<line x1="856.8" y1="156.0" x2="856.8" y2="345.0" stroke="#f3f3f3" stroke-width="1.0" />
<line x1="856.8" y1="345.0" x2="856.8" y2="350.0" stroke="#777777" stroke-width="1.1" />
<text x="856.8" y="365.0" font-size="12" font-weight="400" text-anchor="middle" fill="#555555">4</text>
<line x1="926.4" y1="156.0" x2="926.4" y2="345.0" stroke="#f3f3f3" stroke-width="1.0" />
<line x1="926.4" y1="345.0" x2="926.4" y2="350.0" stroke="#777777" stroke-width="1.1" />
<text x="926.4" y="365.0" font-size="12" font-weight="400" text-anchor="middle" fill="#555555">5</text>
<line x1="996.0" y1="156.0" x2="996.0" y2="345.0" stroke="#f3f3f3" stroke-width="1.0" />
<line x1="996.0" y1="345.0" x2="996.0" y2="350.0" stroke="#777777" stroke-width="1.1" />
<text x="996.0" y="365.0" font-size="12" font-weight="400" text-anchor="middle" fill="#555555">6</text>
<polyline points="648.0,157.0 717.6,180.3 787.2,227.8 856.8,270.5 926.4,302.5 996.0,325.8" fill="none" stroke="#8c2d04" stroke-width="3.0" stroke-linecap="round" stroke-linejoin="round" />
<circle cx="648.0" cy="157.0" r="4.8" fill="white" stroke="#8c2d04" stroke-width="2.2" />
<circle cx="717.6" cy="180.3" r="4.8" fill="white" stroke="#8c2d04" stroke-width="2.2" />
<circle cx="787.2" cy="227.8" r="4.8" fill="white" stroke="#8c2d04" stroke-width="2.2" />
<circle cx="856.8" cy="270.5" r="4.8" fill="white" stroke="#8c2d04" stroke-width="2.2" />
<circle cx="926.4" cy="302.5" r="4.8" fill="white" stroke="#8c2d04" stroke-width="2.2" />
<circle cx="996.0" cy="325.8" r="4.8" fill="white" stroke="#8c2d04" stroke-width="2.2" />
<line x1="999.0" y1="325.8" x2="1002.0" y2="325.8" stroke="#8c2d04" stroke-width="1.6" />
<text x="1008.0" y="329.8" font-size="13" font-weight="700" text-anchor="start" fill="#8c2d04">77.5%</text>
<polyline points="648.0,156.0 717.6,159.9 787.2,165.7 856.8,169.6 926.4,170.6 996.0,171.5" fill="none" stroke="#16697a" stroke-width="3.0" stroke-linecap="round" stroke-linejoin="round" stroke-dasharray="10 6" />
<rect x="643.5" y="151.5" width="9.0" height="9.0" fill="white" stroke="#16697a" stroke-width="2.0" />
<rect x="713.1" y="155.4" width="9.0" height="9.0" fill="white" stroke="#16697a" stroke-width="2.0" />
<rect x="782.7" y="161.2" width="9.0" height="9.0" fill="white" stroke="#16697a" stroke-width="2.0" />
<rect x="852.3" y="165.1" width="9.0" height="9.0" fill="white" stroke="#16697a" stroke-width="2.0" />
<rect x="921.9" y="166.1" width="9.0" height="9.0" fill="white" stroke="#16697a" stroke-width="2.0" />
<rect x="991.5" y="167.0" width="9.0" height="9.0" fill="white" stroke="#16697a" stroke-width="2.0" />
<line x1="999.0" y1="171.5" x2="1002.0" y2="171.5" stroke="#16697a" stroke-width="1.6" />
<text x="1008.0" y="175.5" font-size="13" font-weight="700" text-anchor="start" fill="#16697a">97.9%</text>
<polyline points="648.0,157.0 717.6,158.9 787.2,160.9 856.8,172.5 926.4,176.4 996.0,183.2" fill="none" stroke="#c77600" stroke-width="3.0" stroke-linecap="round" stroke-linejoin="round" stroke-dasharray="3 5" />
<polygon points="648.0,151.7 653.3,157.0 648.0,162.3 642.7,157.0" fill="white" stroke="#c77600" stroke-width="2.0" />
<polygon points="717.6,153.6 722.9,158.9 717.6,164.2 712.3,158.9" fill="white" stroke="#c77600" stroke-width="2.0" />
<polygon points="787.2,155.6 792.5,160.9 787.2,166.2 781.9,160.9" fill="white" stroke="#c77600" stroke-width="2.0" />
<polygon points="856.8,167.2 862.1,172.5 856.8,177.8 851.5,172.5" fill="white" stroke="#c77600" stroke-width="2.0" />
<polygon points="926.4,171.1 931.7,176.4 926.4,181.7 921.1,176.4" fill="white" stroke="#c77600" stroke-width="2.0" />
<polygon points="996.0,177.9 1001.3,183.2 996.0,188.5 990.7,183.2" fill="white" stroke="#c77600" stroke-width="2.0" />
<line x1="999.0" y1="183.2" x2="1002.0" y2="185.5" stroke="#c77600" stroke-width="1.6" />
<text x="1008.0" y="189.5" font-size="13" font-weight="700" text-anchor="start" fill="#c77600">96.4%</text>
<rect x="72.0" y="431.0" width="478.0" height="277.0" rx="14" ry="14" fill="#fbfbfb" stroke="#d9d9d9" stroke-width="1.2" />
<rect x="126.0" y="481.0" width="348.0" height="189.0" fill="white" stroke="#e0e0e0" stroke-width="1.0" />
<text x="90.0" y="459.0" font-size="17" font-weight="700" text-anchor="start" fill="#111111" class="panel-title">Gemini tutor / CSBench</text>
<text x="532.0" y="459.0" font-size="12" font-weight="400" text-anchor="end" fill="#666666" class="panel-note">n = 644</text>
<line x1="126.0" y1="670.0" x2="474.0" y2="670.0" stroke="#ececec" stroke-width="1.0" />
<text x="116.0" y="674.0" font-size="12" font-weight="400" text-anchor="end" fill="#555555">75</text>
<line x1="126.0" y1="632.2" x2="474.0" y2="632.2" stroke="#ececec" stroke-width="1.0" />
<text x="116.0" y="636.2" font-size="12" font-weight="400" text-anchor="end" fill="#555555">80</text>
<line x1="126.0" y1="594.4" x2="474.0" y2="594.4" stroke="#ececec" stroke-width="1.0" />
<text x="116.0" y="598.4" font-size="12" font-weight="400" text-anchor="end" fill="#555555">85</text>
<line x1="126.0" y1="556.6" x2="474.0" y2="556.6" stroke="#ececec" stroke-width="1.0" />
<text x="116.0" y="560.6" font-size="12" font-weight="400" text-anchor="end" fill="#555555">90</text>
<line x1="126.0" y1="518.8" x2="474.0" y2="518.8" stroke="#ececec" stroke-width="1.0" />
<text x="116.0" y="522.8" font-size="12" font-weight="400" text-anchor="end" fill="#555555">95</text>
<line x1="126.0" y1="481.0" x2="474.0" y2="481.0" stroke="#ececec" stroke-width="1.0" />
<text x="116.0" y="485.0" font-size="12" font-weight="400" text-anchor="end" fill="#555555">100</text>
<line x1="126.0" y1="481.0" x2="126.0" y2="670.0" stroke="#f3f3f3" stroke-width="1.0" />
<line x1="126.0" y1="670.0" x2="126.0" y2="675.0" stroke="#777777" stroke-width="1.1" />
<text x="126.0" y="690.0" font-size="12" font-weight="400" text-anchor="middle" fill="#555555">1</text>
<line x1="195.6" y1="481.0" x2="195.6" y2="670.0" stroke="#f3f3f3" stroke-width="1.0" />
<line x1="195.6" y1="670.0" x2="195.6" y2="675.0" stroke="#777777" stroke-width="1.1" />
<text x="195.6" y="690.0" font-size="12" font-weight="400" text-anchor="middle" fill="#555555">2</text>
<line x1="265.2" y1="481.0" x2="265.2" y2="670.0" stroke="#f3f3f3" stroke-width="1.0" />
<line x1="265.2" y1="670.0" x2="265.2" y2="675.0" stroke="#777777" stroke-width="1.1" />
<text x="265.2" y="690.0" font-size="12" font-weight="400" text-anchor="middle" fill="#555555">3</text>
<line x1="334.8" y1="481.0" x2="334.8" y2="670.0" stroke="#f3f3f3" stroke-width="1.0" />
<line x1="334.8" y1="670.0" x2="334.8" y2="675.0" stroke="#777777" stroke-width="1.1" />
<text x="334.8" y="690.0" font-size="12" font-weight="400" text-anchor="middle" fill="#555555">4</text>
<line x1="404.4" y1="481.0" x2="404.4" y2="670.0" stroke="#f3f3f3" stroke-width="1.0" />
<line x1="404.4" y1="670.0" x2="404.4" y2="675.0" stroke="#777777" stroke-width="1.1" />
<text x="404.4" y="690.0" font-size="12" font-weight="400" text-anchor="middle" fill="#555555">5</text>
<line x1="474.0" y1="481.0" x2="474.0" y2="670.0" stroke="#f3f3f3" stroke-width="1.0" />
<line x1="474.0" y1="670.0" x2="474.0" y2="675.0" stroke="#777777" stroke-width="1.1" />
<text x="474.0" y="690.0" font-size="12" font-weight="400" text-anchor="middle" fill="#555555">6</text>
<polyline points="126.0,483.3 195.6,491.6 265.2,501.0 334.8,506.8 404.4,510.3 474.0,526.8" fill="none" stroke="#8c2d04" stroke-width="3.0" stroke-linecap="round" stroke-linejoin="round" />
<circle cx="126.0" cy="483.3" r="4.8" fill="white" stroke="#8c2d04" stroke-width="2.2" />
<circle cx="195.6" cy="491.6" r="4.8" fill="white" stroke="#8c2d04" stroke-width="2.2" />
<circle cx="265.2" cy="501.0" r="4.8" fill="white" stroke="#8c2d04" stroke-width="2.2" />
<circle cx="334.8" cy="506.8" r="4.8" fill="white" stroke="#8c2d04" stroke-width="2.2" />
<circle cx="404.4" cy="510.3" r="4.8" fill="white" stroke="#8c2d04" stroke-width="2.2" />
<circle cx="474.0" cy="526.8" r="4.8" fill="white" stroke="#8c2d04" stroke-width="2.2" />
<line x1="477.0" y1="526.8" x2="480.0" y2="526.8" stroke="#8c2d04" stroke-width="1.6" />
<text x="486.0" y="530.8" font-size="13" font-weight="700" text-anchor="start" fill="#8c2d04">93.9%</text>
<polyline points="126.0,481.0 195.6,489.2 265.2,492.7 334.8,497.4 404.4,497.4 474.0,501.0" fill="none" stroke="#16697a" stroke-width="3.0" stroke-linecap="round" stroke-linejoin="round" stroke-dasharray="10 6" />
<rect x="121.5" y="476.5" width="9.0" height="9.0" fill="white" stroke="#16697a" stroke-width="2.0" />
<rect x="191.1" y="484.7" width="9.0" height="9.0" fill="white" stroke="#16697a" stroke-width="2.0" />
<rect x="260.7" y="488.2" width="9.0" height="9.0" fill="white" stroke="#16697a" stroke-width="2.0" />
<rect x="330.3" y="492.9" width="9.0" height="9.0" fill="white" stroke="#16697a" stroke-width="2.0" />
<rect x="399.9" y="492.9" width="9.0" height="9.0" fill="white" stroke="#16697a" stroke-width="2.0" />
<rect x="469.5" y="496.5" width="9.0" height="9.0" fill="white" stroke="#16697a" stroke-width="2.0" />
<line x1="477.0" y1="501.0" x2="480.0" y2="506.7" stroke="#16697a" stroke-width="1.6" />
<text x="486.0" y="510.7" font-size="13" font-weight="700" text-anchor="start" fill="#16697a">97.4%</text>
<polyline points="126.0,482.2 195.6,486.9 265.2,491.6 334.8,491.6 404.4,491.6 474.0,492.7" fill="none" stroke="#c77600" stroke-width="3.0" stroke-linecap="round" stroke-linejoin="round" stroke-dasharray="3 5" />
<polygon points="126.0,476.9 131.3,482.2 126.0,487.5 120.7,482.2" fill="white" stroke="#c77600" stroke-width="2.0" />
<polygon points="195.6,481.6 200.9,486.9 195.6,492.2 190.3,486.9" fill="white" stroke="#c77600" stroke-width="2.0" />
<polygon points="265.2,486.3 270.5,491.6 265.2,496.9 259.9,491.6" fill="white" stroke="#c77600" stroke-width="2.0" />
<polygon points="334.8,486.3 340.1,491.6 334.8,496.9 329.5,491.6" fill="white" stroke="#c77600" stroke-width="2.0" />
<polygon points="404.4,486.3 409.7,491.6 404.4,496.9 399.1,491.6" fill="white" stroke="#c77600" stroke-width="2.0" />
<polygon points="474.0,487.4 479.3,492.7 474.0,498.0 468.7,492.7" fill="white" stroke="#c77600" stroke-width="2.0" />
<line x1="477.0" y1="492.7" x2="480.0" y2="492.7" stroke="#c77600" stroke-width="1.6" />
<text x="486.0" y="496.7" font-size="13" font-weight="700" text-anchor="start" fill="#c77600">98.4%</text>
<rect x="594.0" y="431.0" width="478.0" height="277.0" rx="14" ry="14" fill="#fbfbfb" stroke="#d9d9d9" stroke-width="1.2" />
<rect x="648.0" y="481.0" width="348.0" height="189.0" fill="white" stroke="#e0e0e0" stroke-width="1.0" />
<text x="612.0" y="459.0" font-size="17" font-weight="700" text-anchor="start" fill="#111111" class="panel-title">Gemini tutor / PeerWise</text>
<text x="1054.0" y="459.0" font-size="12" font-weight="400" text-anchor="end" fill="#666666" class="panel-note">n = 779</text>
<line x1="648.0" y1="670.0" x2="996.0" y2="670.0" stroke="#ececec" stroke-width="1.0" />
<line x1="648.0" y1="632.2" x2="996.0" y2="632.2" stroke="#ececec" stroke-width="1.0" />
<line x1="648.0" y1="594.4" x2="996.0" y2="594.4" stroke="#ececec" stroke-width="1.0" />
<line x1="648.0" y1="556.6" x2="996.0" y2="556.6" stroke="#ececec" stroke-width="1.0" />
<line x1="648.0" y1="518.8" x2="996.0" y2="518.8" stroke="#ececec" stroke-width="1.0" />
<line x1="648.0" y1="481.0" x2="996.0" y2="481.0" stroke="#ececec" stroke-width="1.0" />
<line x1="648.0" y1="481.0" x2="648.0" y2="670.0" stroke="#f3f3f3" stroke-width="1.0" />
<line x1="648.0" y1="670.0" x2="648.0" y2="675.0" stroke="#777777" stroke-width="1.1" />
<text x="648.0" y="690.0" font-size="12" font-weight="400" text-anchor="middle" fill="#555555">1</text>
<line x1="717.6" y1="481.0" x2="717.6" y2="670.0" stroke="#f3f3f3" stroke-width="1.0" />
<line x1="717.6" y1="670.0" x2="717.6" y2="675.0" stroke="#777777" stroke-width="1.1" />
<text x="717.6" y="690.0" font-size="12" font-weight="400" text-anchor="middle" fill="#555555">2</text>
<line x1="787.2" y1="481.0" x2="787.2" y2="670.0" stroke="#f3f3f3" stroke-width="1.0" />
<line x1="787.2" y1="670.0" x2="787.2" y2="675.0" stroke="#777777" stroke-width="1.1" />
<text x="787.2" y="690.0" font-size="12" font-weight="400" text-anchor="middle" fill="#555555">3</text>
<line x1="856.8" y1="481.0" x2="856.8" y2="670.0" stroke="#f3f3f3" stroke-width="1.0" />
<line x1="856.8" y1="670.0" x2="856.8" y2="675.0" stroke="#777777" stroke-width="1.1" />
<text x="856.8" y="690.0" font-size="12" font-weight="400" text-anchor="middle" fill="#555555">4</text>
<line x1="926.4" y1="481.0" x2="926.4" y2="670.0" stroke="#f3f3f3" stroke-width="1.0" />
<line x1="926.4" y1="670.0" x2="926.4" y2="675.0" stroke="#777777" stroke-width="1.1" />
<text x="926.4" y="690.0" font-size="12" font-weight="400" text-anchor="middle" fill="#555555">5</text>
<line x1="996.0" y1="481.0" x2="996.0" y2="670.0" stroke="#f3f3f3" stroke-width="1.0" />
<line x1="996.0" y1="670.0" x2="996.0" y2="675.0" stroke="#777777" stroke-width="1.1" />
<text x="996.0" y="690.0" font-size="12" font-weight="400" text-anchor="middle" fill="#555555">6</text>
<polyline points="648.0,481.0 717.6,485.9 787.2,494.6 856.8,503.3 926.4,510.1 996.0,529.5" fill="none" stroke="#8c2d04" stroke-width="3.0" stroke-linecap="round" stroke-linejoin="round" />
<circle cx="648.0" cy="481.0" r="4.8" fill="white" stroke="#8c2d04" stroke-width="2.2" />
<circle cx="717.6" cy="485.9" r="4.8" fill="white" stroke="#8c2d04" stroke-width="2.2" />
<circle cx="787.2" cy="494.6" r="4.8" fill="white" stroke="#8c2d04" stroke-width="2.2" />
<circle cx="856.8" cy="503.3" r="4.8" fill="white" stroke="#8c2d04" stroke-width="2.2" />
<circle cx="926.4" cy="510.1" r="4.8" fill="white" stroke="#8c2d04" stroke-width="2.2" />
<circle cx="996.0" cy="529.5" r="4.8" fill="white" stroke="#8c2d04" stroke-width="2.2" />
<line x1="999.0" y1="529.5" x2="1002.0" y2="529.5" stroke="#8c2d04" stroke-width="1.6" />
<text x="1008.0" y="533.5" font-size="13" font-weight="700" text-anchor="start" fill="#8c2d04">93.6%</text>
<polyline points="648.0,481.0 717.6,482.0 787.2,484.9 856.8,490.7 926.4,493.6 996.0,496.5" fill="none" stroke="#16697a" stroke-width="3.0" stroke-linecap="round" stroke-linejoin="round" stroke-dasharray="10 6" />
<rect x="643.5" y="476.5" width="9.0" height="9.0" fill="white" stroke="#16697a" stroke-width="2.0" />
<rect x="713.1" y="477.5" width="9.0" height="9.0" fill="white" stroke="#16697a" stroke-width="2.0" />
<rect x="782.7" y="480.4" width="9.0" height="9.0" fill="white" stroke="#16697a" stroke-width="2.0" />
<rect x="852.3" y="486.2" width="9.0" height="9.0" fill="white" stroke="#16697a" stroke-width="2.0" />
<rect x="921.9" y="489.1" width="9.0" height="9.0" fill="white" stroke="#16697a" stroke-width="2.0" />
<rect x="991.5" y="492.0" width="9.0" height="9.0" fill="white" stroke="#16697a" stroke-width="2.0" />
<line x1="999.0" y1="496.5" x2="1002.0" y2="509.6" stroke="#16697a" stroke-width="1.6" />
<text x="1008.0" y="513.6" font-size="13" font-weight="700" text-anchor="start" fill="#16697a">97.9%</text>
<polyline points="648.0,481.0 717.6,482.9 787.2,486.8 856.8,493.6 926.4,494.6 996.0,495.6" fill="none" stroke="#c77600" stroke-width="3.0" stroke-linecap="round" stroke-linejoin="round" stroke-dasharray="3 5" />
<polygon points="648.0,475.7 653.3,481.0 648.0,486.3 642.7,481.0" fill="white" stroke="#c77600" stroke-width="2.0" />
<polygon points="717.6,477.6 722.9,482.9 717.6,488.2 712.3,482.9" fill="white" stroke="#c77600" stroke-width="2.0" />
<polygon points="787.2,481.5 792.5,486.8 787.2,492.1 781.9,486.8" fill="white" stroke="#c77600" stroke-width="2.0" />
<polygon points="856.8,488.3 862.1,493.6 856.8,498.9 851.5,493.6" fill="white" stroke="#c77600" stroke-width="2.0" />
<polygon points="926.4,489.3 931.7,494.6 926.4,499.9 921.1,494.6" fill="white" stroke="#c77600" stroke-width="2.0" />
<polygon points="996.0,490.3 1001.3,495.6 996.0,500.9 990.7,495.6" fill="white" stroke="#c77600" stroke-width="2.0" />
<line x1="999.0" y1="495.6" x2="1002.0" y2="495.6" stroke="#c77600" stroke-width="1.6" />
<text x="1008.0" y="499.6" font-size="13" font-weight="700" text-anchor="start" fill="#c77600">98.1%</text>
</svg>