<svg xmlns="http://www.w3.org/2000/svg" width="1100" height="770" viewBox="0 0 1100 770">
<style><![CDATA[
text { font-family: "Nimbus Roman", "Liberation Serif", serif; }
.tick { fill: #4a4a4a; font-size: 12px; }
.panel-title { fill: #111111; font-size: 17px; font-weight: 700; }
.panel-note { fill: #666666; font-size: 12px; }
.legend-text { fill: #202020; font-size: 14px; }
]]></style>
<rect x="0" y="0" width="1100" height="770" fill="white" />
<line x1="132" y1="48.0" x2="182" y2="48.0" stroke="#8c2d04" stroke-width="3.0" stroke-linecap="round" />
<circle cx="157.0" cy="48.0" r="4.8" fill="white" stroke="#8c2d04" stroke-width="2.2" />
<text x="194.0" y="53.0" font-size="14" font-weight="600" text-anchor="start" fill="#111111" class="legend-text">Single</text>
<line x1="410" y1="48.0" x2="460" y2="48.0" stroke="#16697a" stroke-width="3.0" stroke-linecap="round" stroke-dasharray="10 6" />
<rect x="430.5" y="43.5" width="9.0" height="9.0" fill="white" stroke="#16697a" stroke-width="2.0" />
<text x="472.0" y="53.0" font-size="14" font-weight="600" text-anchor="start" fill="#111111" class="legend-text">Dual: same-provider</text>
<line x1="738" y1="48.0" x2="788" y2="48.0" stroke="#c77600" stroke-width="3.0" stroke-linecap="round" stroke-dasharray="3 5" />
<polygon points="763.0,42.7 768.3,48.0 763.0,53.3 757.7,48.0" fill="white" stroke="#c77600" stroke-width="2.0" />
<text x="800.0" y="53.0" font-size="14" font-weight="600" text-anchor="start" fill="#111111" class="legend-text">Dual: cross-provider</text>
<text x="26.0" y="385.0" font-size="16" font-weight="700" text-anchor="start" fill="#111111" transform="rotate(-90 26 385)">Leakage-free conversations (%)</text>
<text x="550.0" y="758.0" font-size="16" font-weight="700" text-anchor="middle" fill="#111111">Student-visible turn</text>
<text x="1076.0" y="758.0" font-size="12" font-weight="400" text-anchor="end" fill="#666666">Y-axis truncated to 75-100% to show late-turn divergence.</text>
<rect x="72.0" y="106.0" width="478.0" height="277.0" rx="14" ry="14" fill="#fbfbfb" stroke="#d9d9d9" stroke-width="1.2" />
<rect x="126.0" y="140.0" width="348.0" height="205.0" fill="white" stroke="#e0e0e0" stroke-width="1.0" />
<text x="90.0" y="130.0" font-size="17" font-weight="700" text-anchor="start" fill="#111111" class="panel-title">GPT tutor / CSBench</text>
<text x="90.0" y="148.0" font-size="12" font-weight="400" text-anchor="start" fill="#666666" class="panel-note">n = 644</text>
<line x1="126.0" y1="345.0" x2="474.0" y2="345.0" stroke="#ececec" stroke-width="1.0" />
<text x="116.0" y="349.0" font-size="12" font-weight="400" text-anchor="end" fill="#555555">75</text>
<line x1="126.0" y1="304.0" x2="474.0" y2="304.0" stroke="#ececec" stroke-width="1.0" />
<text x="116.0" y="308.0" font-size="12" font-weight="400" text-anchor="end" fill="#555555">80</text>
<line x1="126.0" y1="263.0" x2="474.0" y2="263.0" stroke="#ececec" stroke-width="1.0" />
<text x="116.0" y="267.0" font-size="12" font-weight="400" text-anchor="end" fill="#555555">85</text>
<line x1="126.0" y1="222.0" x2="474.0" y2="222.0" stroke="#ececec" stroke-width="1.0" />
<text x="116.0" y="226.0" font-size="12" font-weight="400" text-anchor="end" fill="#555555">90</text>
<line x1="126.0" y1="181.0" x2="474.0" y2="181.0" stroke="#ececec" stroke-width="1.0" />
<text x="116.0" y="185.0" font-size="12" font-weight="400" text-anchor="end" fill="#555555">95</text>
<line x1="126.0" y1="140.0" x2="474.0" y2="140.0" stroke="#ececec" stroke-width="1.0" />
<text x="116.0" y="144.0" font-size="12" font-weight="400" text-anchor="end" fill="#555555">100</text>
<line x1="126.0" y1="140.0" x2="126.0" y2="345.0" stroke="#f3f3f3" stroke-width="1.0" />
<line x1="126.0" y1="345.0" x2="126.0" y2="350.0" stroke="#777777" stroke-width="1.1" />
<text x="126.0" y="365.0" font-size="12" font-weight="400" text-anchor="middle" fill="#555555">1</text>
<line x1="195.6" y1="140.0" x2="195.6" y2="345.0" stroke="#f3f3f3" stroke-width="1.0" />
<line x1="195.6" y1="345.0" x2="195.6" y2="350.0" stroke="#777777" stroke-width="1.1" />
<text x="195.6" y="365.0" font-size="12" font-weight="400" text-anchor="middle" fill="#555555">2</text>
<line x1="265.2" y1="140.0" x2="265.2" y2="345.0" stroke="#f3f3f3" stroke-width="1.0" />
<line x1="265.2" y1="345.0" x2="265.2" y2="350.0" stroke="#777777" stroke-width="1.1" />
<text x="265.2" y="365.0" font-size="12" font-weight="400" text-anchor="middle" fill="#555555">3</text>
<line x1="334.8" y1="140.0" x2="334.8" y2="345.0" stroke="#f3f3f3" stroke-width="1.0" />
<line x1="334.8" y1="345.0" x2="334.8" y2="350.0" stroke="#777777" stroke-width="1.1" />
<text x="334.8" y="365.0" font-size="12" font-weight="400" text-anchor="middle" fill="#555555">4</text>
<line x1="404.4" y1="140.0" x2="404.4" y2="345.0" stroke="#f3f3f3" stroke-width="1.0" />
<line x1="404.4" y1="345.0" x2="404.4" y2="350.0" stroke="#777777" stroke-width="1.1" />
<text x="404.4" y="365.0" font-size="12" font-weight="400" text-anchor="middle" fill="#555555">5</text>
<line x1="474.0" y1="140.0" x2="474.0" y2="345.0" stroke="#f3f3f3" stroke-width="1.0" />
<line x1="474.0" y1="345.0" x2="474.0" y2="350.0" stroke="#777777" stroke-width="1.1" />
<text x="474.0" y="365.0" font-size="12" font-weight="400" text-anchor="middle" fill="#555555">6</text>
<polyline points="126.0,168.0 195.6,194.8 265.2,217.7 334.8,235.5 404.4,252.0 474.0,269.9" fill="none" stroke="#8c2d04" stroke-width="3.0" stroke-linecap="round" stroke-linejoin="round" />
<circle cx="126.0" cy="168.0" r="4.8" fill="white" stroke="#8c2d04" stroke-width="2.2" />
<circle cx="195.6" cy="194.8" r="4.8" fill="white" stroke="#8c2d04" stroke-width="2.2" />
<circle cx="265.2" cy="217.7" r="4.8" fill="white" stroke="#8c2d04" stroke-width="2.2" />
<circle cx="334.8" cy="235.5" r="4.8" fill="white" stroke="#8c2d04" stroke-width="2.2" />
<circle cx="404.4" cy="252.0" r="4.8" fill="white" stroke="#8c2d04" stroke-width="2.2" />
<circle cx="474.0" cy="269.9" r="4.8" fill="white" stroke="#8c2d04" stroke-width="2.2" />
<line x1="477.0" y1="269.9" x2="480.0" y2="269.9" stroke="#8c2d04" stroke-width="1.6" />
<text x="486.0" y="273.9" font-size="13" font-weight="700" text-anchor="start" fill="#8c2d04">84.2%</text>
<polyline points="126.0,145.1 195.6,157.8 265.2,162.9 334.8,166.7 404.4,168.0 474.0,170.6" fill="none" stroke="#16697a" stroke-width="3.0" stroke-linecap="round" stroke-linejoin="round" stroke-dasharray="10 6" />
<rect x="121.5" y="140.6" width="9.0" height="9.0" fill="white" stroke="#16697a" stroke-width="2.0" />
<rect x="191.1" y="153.3" width="9.0" height="9.0" fill="white" stroke="#16697a" stroke-width="2.0" />
<rect x="260.7" y="158.4" width="9.0" height="9.0" fill="white" stroke="#16697a" stroke-width="2.0" />
<rect x="330.3" y="162.2" width="9.0" height="9.0" fill="white" stroke="#16697a" stroke-width="2.0" />
<rect x="399.9" y="163.5" width="9.0" height="9.0" fill="white" stroke="#16697a" stroke-width="2.0" />
<rect x="469.5" y="166.1" width="9.0" height="9.0" fill="white" stroke="#16697a" stroke-width="2.0" />
<line x1="477.0" y1="170.6" x2="480.0" y2="170.6" stroke="#16697a" stroke-width="1.6" />
<text x="486.0" y="174.6" font-size="13" font-weight="700" text-anchor="start" fill="#16697a">96.3%</text>
<polyline points="126.0,148.9 195.6,154.0 265.2,159.1 334.8,164.2 404.4,169.3 474.0,174.4" fill="none" stroke="#c77600" stroke-width="3.0" stroke-linecap="round" stroke-linejoin="round" stroke-dasharray="3 5" />
<polygon points="126.0,143.6 131.3,148.9 126.0,154.2 120.7,148.9" fill="white" stroke="#c77600" stroke-width="2.0" />
<polygon points="195.6,148.7 200.9,154.0 195.6,159.3 190.3,154.0" fill="white" stroke="#c77600" stroke-width="2.0" />
<polygon points="265.2,153.8 270.5,159.1 265.2,164.4 259.9,159.1" fill="white" stroke="#c77600" stroke-width="2.0" />
<polygon points="334.8,158.9 340.1,164.2 334.8,169.5 329.5,164.2" fill="white" stroke="#c77600" stroke-width="2.0" />
<polygon points="404.4,164.0 409.7,169.3 404.4,174.6 399.1,169.3" fill="white" stroke="#c77600" stroke-width="2.0" />
<polygon points="474.0,169.1 479.3,174.4 474.0,179.7 468.7,174.4" fill="white" stroke="#c77600" stroke-width="2.0" />
<line x1="477.0" y1="174.4" x2="480.0" y2="184.6" stroke="#c77600" stroke-width="1.6" />
<text x="486.0" y="188.6" font-size="13" font-weight="700" text-anchor="start" fill="#c77600">95.8%</text>
<rect x="594.0" y="106.0" width="478.0" height="277.0" rx="14" ry="14" fill="#fbfbfb" stroke="#d9d9d9" stroke-width="1.2" />
<rect x="648.0" y="140.0" width="348.0" height="205.0" fill="white" stroke="#e0e0e0" stroke-width="1.0" />
<text x="612.0" y="130.0" font-size="17" font-weight="700" text-anchor="start" fill="#111111" class="panel-title">GPT tutor / PeerWise</text>
<text x="612.0" y="148.0" font-size="12" font-weight="400" text-anchor="start" fill="#666666" class="panel-note">n = 779</text>
<line x1="648.0" y1="345.0" x2="996.0" y2="345.0" stroke="#ececec" stroke-width="1.0" />
<line x1="648.0" y1="304.0" x2="996.0" y2="304.0" stroke="#ececec" stroke-width="1.0" />
<line x1="648.0" y1="263.0" x2="996.0" y2="263.0" stroke="#ececec" stroke-width="1.0" />
<line x1="648.0" y1="222.0" x2="996.0" y2="222.0" stroke="#ececec" stroke-width="1.0" />
<line x1="648.0" y1="181.0" x2="996.0" y2="181.0" stroke="#ececec" stroke-width="1.0" />
<line x1="648.0" y1="140.0" x2="996.0" y2="140.0" stroke="#ececec" stroke-width="1.0" />
<line x1="648.0" y1="140.0" x2="648.0" y2="345.0" stroke="#f3f3f3" stroke-width="1.0" />
<line x1="648.0" y1="345.0" x2="648.0" y2="350.0" stroke="#777777" stroke-width="1.1" />
<text x="648.0" y="365.0" font-size="12" font-weight="400" text-anchor="middle" fill="#555555">1</text>
<line x1="717.6" y1="140.0" x2="717.6" y2="345.0" stroke="#f3f3f3" stroke-width="1.0" />
<line x1="717.6" y1="345.0" x2="717.6" y2="350.0" stroke="#777777" stroke-width="1.1" />
<text x="717.6" y="365.0" font-size="12" font-weight="400" text-anchor="middle" fill="#555555">2</text>
<line x1="787.2" y1="140.0" x2="787.2" y2="345.0" stroke="#f3f3f3" stroke-width="1.0" />
<line x1="787.2" y1="345.0" x2="787.2" y2="350.0" stroke="#777777" stroke-width="1.1" />
<text x="787.2" y="365.0" font-size="12" font-weight="400" text-anchor="middle" fill="#555555">3</text>
<line x1="856.8" y1="140.0" x2="856.8" y2="345.0" stroke="#f3f3f3" stroke-width="1.0" />
<line x1="856.8" y1="345.0" x2="856.8" y2="350.0" stroke="#777777" stroke-width="1.1" />
<text x="856.8" y="365.0" font-size="12" font-weight="400" text-anchor="middle" fill="#555555">4</text>
<line x1="926.4" y1="140.0" x2="926.4" y2="345.0" stroke="#f3f3f3" stroke-width="1.0" />
<line x1="926.4" y1="345.0" x2="926.4" y2="350.0" stroke="#777777" stroke-width="1.1" />
<text x="926.4" y="365.0" font-size="12" font-weight="400" text-anchor="middle" fill="#555555">5</text>
<line x1="996.0" y1="140.0" x2="996.0" y2="345.0" stroke="#f3f3f3" stroke-width="1.0" />
<line x1="996.0" y1="345.0" x2="996.0" y2="350.0" stroke="#777777" stroke-width="1.1" />
<text x="996.0" y="365.0" font-size="12" font-weight="400" text-anchor="middle" fill="#555555">6</text>
<polyline points="648.0,141.1 717.6,166.3 787.2,217.9 856.8,264.2 926.4,298.9 996.0,324.2" fill="none" stroke="#8c2d04" stroke-width="3.0" stroke-linecap="round" stroke-linejoin="round" />
<circle cx="648.0" cy="141.1" r="4.8" fill="white" stroke="#8c2d04" stroke-width="2.2" />
<circle cx="717.6" cy="166.3" r="4.8" fill="white" stroke="#8c2d04" stroke-width="2.2" />
<circle cx="787.2" cy="217.9" r="4.8" fill="white" stroke="#8c2d04" stroke-width="2.2" />
<circle cx="856.8" cy="264.2" r="4.8" fill="white" stroke="#8c2d04" stroke-width="2.2" />
<circle cx="926.4" cy="298.9" r="4.8" fill="white" stroke="#8c2d04" stroke-width="2.2" />
<circle cx="996.0" cy="324.2" r="4.8" fill="white" stroke="#8c2d04" stroke-width="2.2" />
<line x1="999.0" y1="324.2" x2="1002.0" y2="324.2" stroke="#8c2d04" stroke-width="1.6" />
<text x="1008.0" y="328.2" font-size="13" font-weight="700" text-anchor="start" fill="#8c2d04">77.5%</text>
<polyline points="648.0,140.0 717.6,144.2 787.2,150.5 856.8,154.7 926.4,155.8 996.0,156.8" fill="none" stroke="#16697a" stroke-width="3.0" stroke-linecap="round" stroke-linejoin="round" stroke-dasharray="10 6" />
<rect x="643.5" y="135.5" width="9.0" height="9.0" fill="white" stroke="#16697a" stroke-width="2.0" />
<rect x="713.1" y="139.7" width="9.0" height="9.0" fill="white" stroke="#16697a" stroke-width="2.0" />
<rect x="782.7" y="146.0" width="9.0" height="9.0" fill="white" stroke="#16697a" stroke-width="2.0" />
<rect x="852.3" y="150.2" width="9.0" height="9.0" fill="white" stroke="#16697a" stroke-width="2.0" />
<rect x="921.9" y="151.3" width="9.0" height="9.0" fill="white" stroke="#16697a" stroke-width="2.0" />
<rect x="991.5" y="152.3" width="9.0" height="9.0" fill="white" stroke="#16697a" stroke-width="2.0" />
<line x1="999.0" y1="156.8" x2="1002.0" y2="156.8" stroke="#16697a" stroke-width="1.6" />
<text x="1008.0" y="160.8" font-size="13" font-weight="700" text-anchor="start" fill="#16697a">97.9%</text>
<polyline points="648.0,141.1 717.6,143.2 787.2,145.3 856.8,157.9 926.4,162.1 996.0,169.5" fill="none" stroke="#c77600" stroke-width="3.0" stroke-linecap="round" stroke-linejoin="round" stroke-dasharray="3 5" />
<polygon points="648.0,135.8 653.3,141.1 648.0,146.4 642.7,141.1" fill="white" stroke="#c77600" stroke-width="2.0" />
<polygon points="717.6,137.9 722.9,143.2 717.6,148.5 712.3,143.2" fill="white" stroke="#c77600" stroke-width="2.0" />
<polygon points="787.2,140.0 792.5,145.3 787.2,150.6 781.9,145.3" fill="white" stroke="#c77600" stroke-width="2.0" />
<polygon points="856.8,152.6 862.1,157.9 856.8,163.2 851.5,157.9" fill="white" stroke="#c77600" stroke-width="2.0" />
<polygon points="926.4,156.8 931.7,162.1 926.4,167.4 921.1,162.1" fill="white" stroke="#c77600" stroke-width="2.0" />
<polygon points="996.0,164.2 1001.3,169.5 996.0,174.8 990.7,169.5" fill="white" stroke="#c77600" stroke-width="2.0" />
<line x1="999.0" y1="169.5" x2="1002.0" y2="170.8" stroke="#c77600" stroke-width="1.6" />
<text x="1008.0" y="174.8" font-size="13" font-weight="700" text-anchor="start" fill="#c77600">96.4%</text>
<rect x="72.0" y="431.0" width="478.0" height="277.0" rx="14" ry="14" fill="#fbfbfb" stroke="#d9d9d9" stroke-width="1.2" />
<rect x="126.0" y="465.0" width="348.0" height="205.0" fill="white" stroke="#e0e0e0" stroke-width="1.0" />
<text x="90.0" y="455.0" font-size="17" font-weight="700" text-anchor="start" fill="#111111" class="panel-title">Gemini tutor / CSBench</text>
<text x="90.0" y="473.0" font-size="12" font-weight="400" text-anchor="start" fill="#666666" class="panel-note">n = 644</text>
<line x1="126.0" y1="670.0" x2="474.0" y2="670.0" stroke="#ececec" stroke-width="1.0" />
<text x="116.0" y="674.0" font-size="12" font-weight="400" text-anchor="end" fill="#555555">75</text>
<line x1="126.0" y1="629.0" x2="474.0" y2="629.0" stroke="#ececec" stroke-width="1.0" />
<text x="116.0" y="633.0" font-size="12" font-weight="400" text-anchor="end" fill="#555555">80</text>
<line x1="126.0" y1="588.0" x2="474.0" y2="588.0" stroke="#ececec" stroke-width="1.0" />
<text x="116.0" y="592.0" font-size="12" font-weight="400" text-anchor="end" fill="#555555">85</text>
<line x1="126.0" y1="547.0" x2="474.0" y2="547.0" stroke="#ececec" stroke-width="1.0" />
<text x="116.0" y="551.0" font-size="12" font-weight="400" text-anchor="end" fill="#555555">90</text>
<line x1="126.0" y1="506.0" x2="474.0" y2="506.0" stroke="#ececec" stroke-width="1.0" />
<text x="116.0" y="510.0" font-size="12" font-weight="400" text-anchor="end" fill="#555555">95</text>
<line x1="126.0" y1="465.0" x2="474.0" y2="465.0" stroke="#ececec" stroke-width="1.0" />
<text x="116.0" y="469.0" font-size="12" font-weight="400" text-anchor="end" fill="#555555">100</text>
<line x1="126.0" y1="465.0" x2="126.0" y2="670.0" stroke="#f3f3f3" stroke-width="1.0" />
<line x1="126.0" y1="670.0" x2="126.0" y2="675.0" stroke="#777777" stroke-width="1.1" />
<text x="126.0" y="690.0" font-size="12" font-weight="400" text-anchor="middle" fill="#555555">1</text>
<line x1="195.6" y1="465.0" x2="195.6" y2="670.0" stroke="#f3f3f3" stroke-width="1.0" />
<line x1="195.6" y1="670.0" x2="195.6" y2="675.0" stroke="#777777" stroke-width="1.1" />
<text x="195.6" y="690.0" font-size="12" font-weight="400" text-anchor="middle" fill="#555555">2</text>
<line x1="265.2" y1="465.0" x2="265.2" y2="670.0" stroke="#f3f3f3" stroke-width="1.0" />
<line x1="265.2" y1="670.0" x2="265.2" y2="675.0" stroke="#777777" stroke-width="1.1" />
<text x="265.2" y="690.0" font-size="12" font-weight="400" text-anchor="middle" fill="#555555">3</text>
<line x1="334.8" y1="465.0" x2="334.8" y2="670.0" stroke="#f3f3f3" stroke-width="1.0" />
<line x1="334.8" y1="670.0" x2="334.8" y2="675.0" stroke="#777777" stroke-width="1.1" />
<text x="334.8" y="690.0" font-size="12" font-weight="400" text-anchor="middle" fill="#555555">4</text>
<line x1="404.4" y1="465.0" x2="404.4" y2="670.0" stroke="#f3f3f3" stroke-width="1.0" />
<line x1="404.4" y1="670.0" x2="404.4" y2="675.0" stroke="#777777" stroke-width="1.1" />
<text x="404.4" y="690.0" font-size="12" font-weight="400" text-anchor="middle" fill="#555555">5</text>
<line x1="474.0" y1="465.0" x2="474.0" y2="670.0" stroke="#f3f3f3" stroke-width="1.0" />
<line x1="474.0" y1="670.0" x2="474.0" y2="675.0" stroke="#777777" stroke-width="1.1" />
<text x="474.0" y="690.0" font-size="12" font-weight="400" text-anchor="middle" fill="#555555">6</text>
<polyline points="126.0,467.5 195.6,476.5 265.2,486.6 334.8,493.0 404.4,496.8 474.0,514.7" fill="none" stroke="#8c2d04" stroke-width="3.0" stroke-linecap="round" stroke-linejoin="round" />
<circle cx="126.0" cy="467.5" r="4.8" fill="white" stroke="#8c2d04" stroke-width="2.2" />
<circle cx="195.6" cy="476.5" r="4.8" fill="white" stroke="#8c2d04" stroke-width="2.2" />
<circle cx="265.2" cy="486.6" r="4.8" fill="white" stroke="#8c2d04" stroke-width="2.2" />
<circle cx="334.8" cy="493.0" r="4.8" fill="white" stroke="#8c2d04" stroke-width="2.2" />
<circle cx="404.4" cy="496.8" r="4.8" fill="white" stroke="#8c2d04" stroke-width="2.2" />
<circle cx="474.0" cy="514.7" r="4.8" fill="white" stroke="#8c2d04" stroke-width="2.2" />
<line x1="477.0" y1="514.7" x2="480.0" y2="514.7" stroke="#8c2d04" stroke-width="1.6" />
<text x="486.0" y="518.7" font-size="13" font-weight="700" text-anchor="start" fill="#8c2d04">93.9%</text>
<polyline points="126.0,465.0 195.6,473.9 265.2,477.7 334.8,482.8 404.4,482.8 474.0,486.6" fill="none" stroke="#16697a" stroke-width="3.0" stroke-linecap="round" stroke-linejoin="round" stroke-dasharray="10 6" />
<rect x="121.5" y="460.5" width="9.0" height="9.0" fill="white" stroke="#16697a" stroke-width="2.0" />
<rect x="191.1" y="469.4" width="9.0" height="9.0" fill="white" stroke="#16697a" stroke-width="2.0" />
<rect x="260.7" y="473.2" width="9.0" height="9.0" fill="white" stroke="#16697a" stroke-width="2.0" />
<rect x="330.3" y="478.3" width="9.0" height="9.0" fill="white" stroke="#16697a" stroke-width="2.0" />
<rect x="399.9" y="478.3" width="9.0" height="9.0" fill="white" stroke="#16697a" stroke-width="2.0" />
<rect x="469.5" y="482.1" width="9.0" height="9.0" fill="white" stroke="#16697a" stroke-width="2.0" />
<line x1="477.0" y1="486.6" x2="480.0" y2="491.7" stroke="#16697a" stroke-width="1.6" />
<text x="486.0" y="495.7" font-size="13" font-weight="700" text-anchor="start" fill="#16697a">97.4%</text>
<polyline points="126.0,466.3 195.6,471.4 265.2,476.5 334.8,476.5 404.4,476.5 474.0,477.7" fill="none" stroke="#c77600" stroke-width="3.0" stroke-linecap="round" stroke-linejoin="round" stroke-dasharray="3 5" />
<polygon points="126.0,461.0 131.3,466.3 126.0,471.6 120.7,466.3" fill="white" stroke="#c77600" stroke-width="2.0" />
<polygon points="195.6,466.1 200.9,471.4 195.6,476.7 190.3,471.4" fill="white" stroke="#c77600" stroke-width="2.0" />
<polygon points="265.2,471.2 270.5,476.5 265.2,481.8 259.9,476.5" fill="white" stroke="#c77600" stroke-width="2.0" />
<polygon points="334.8,471.2 340.1,476.5 334.8,481.8 329.5,476.5" fill="white" stroke="#c77600" stroke-width="2.0" />
<polygon points="404.4,471.2 409.7,476.5 404.4,481.8 399.1,476.5" fill="white" stroke="#c77600" stroke-width="2.0" />
<polygon points="474.0,472.4 479.3,477.7 474.0,483.0 468.7,477.7" fill="white" stroke="#c77600" stroke-width="2.0" />
<line x1="477.0" y1="477.7" x2="480.0" y2="477.7" stroke="#c77600" stroke-width="1.6" />
<text x="486.0" y="481.7" font-size="13" font-weight="700" text-anchor="start" fill="#c77600">98.4%</text>
<rect x="594.0" y="431.0" width="478.0" height="277.0" rx="14" ry="14" fill="#fbfbfb" stroke="#d9d9d9" stroke-width="1.2" />
<rect x="648.0" y="465.0" width="348.0" height="205.0" fill="white" stroke="#e0e0e0" stroke-width="1.0" />
<text x="612.0" y="455.0" font-size="17" font-weight="700" text-anchor="start" fill="#111111" class="panel-title">Gemini tutor / PeerWise</text>
<text x="612.0" y="473.0" font-size="12" font-weight="400" text-anchor="start" fill="#666666" class="panel-note">n = 779</text>
<line x1="648.0" y1="670.0" x2="996.0" y2="670.0" stroke="#ececec" stroke-width="1.0" />
<line x1="648.0" y1="629.0" x2="996.0" y2="629.0" stroke="#ececec" stroke-width="1.0" />
<line x1="648.0" y1="588.0" x2="996.0" y2="588.0" stroke="#ececec" stroke-width="1.0" />
<line x1="648.0" y1="547.0" x2="996.0" y2="547.0" stroke="#ececec" stroke-width="1.0" />
<line x1="648.0" y1="506.0" x2="996.0" y2="506.0" stroke="#ececec" stroke-width="1.0" />
<line x1="648.0" y1="465.0" x2="996.0" y2="465.0" stroke="#ececec" stroke-width="1.0" />
<line x1="648.0" y1="465.0" x2="648.0" y2="670.0" stroke="#f3f3f3" stroke-width="1.0" />
<line x1="648.0" y1="670.0" x2="648.0" y2="675.0" stroke="#777777" stroke-width="1.1" />
<text x="648.0" y="690.0" font-size="12" font-weight="400" text-anchor="middle" fill="#555555">1</text>
<line x1="717.6" y1="465.0" x2="717.6" y2="670.0" stroke="#f3f3f3" stroke-width="1.0" />
<line x1="717.6" y1="670.0" x2="717.6" y2="675.0" stroke="#777777" stroke-width="1.1" />
<text x="717.6" y="690.0" font-size="12" font-weight="400" text-anchor="middle" fill="#555555">2</text>
<line x1="787.2" y1="465.0" x2="787.2" y2="670.0" stroke="#f3f3f3" stroke-width="1.0" />
<line x1="787.2" y1="670.0" x2="787.2" y2="675.0" stroke="#777777" stroke-width="1.1" />
<text x="787.2" y="690.0" font-size="12" font-weight="400" text-anchor="middle" fill="#555555">3</text>
<line x1="856.8" y1="465.0" x2="856.8" y2="670.0" stroke="#f3f3f3" stroke-width="1.0" />
<line x1="856.8" y1="670.0" x2="856.8" y2="675.0" stroke="#777777" stroke-width="1.1" />
<text x="856.8" y="690.0" font-size="12" font-weight="400" text-anchor="middle" fill="#555555">4</text>
<line x1="926.4" y1="465.0" x2="926.4" y2="670.0" stroke="#f3f3f3" stroke-width="1.0" />
<line x1="926.4" y1="670.0" x2="926.4" y2="675.0" stroke="#777777" stroke-width="1.1" />
<text x="926.4" y="690.0" font-size="12" font-weight="400" text-anchor="middle" fill="#555555">5</text>
<line x1="996.0" y1="465.0" x2="996.0" y2="670.0" stroke="#f3f3f3" stroke-width="1.0" />
<line x1="996.0" y1="670.0" x2="996.0" y2="675.0" stroke="#777777" stroke-width="1.1" />
<text x="996.0" y="690.0" font-size="12" font-weight="400" text-anchor="middle" fill="#555555">6</text>
<polyline points="648.0,465.0 717.6,470.3 787.2,479.7 856.8,489.2 926.4,496.6 996.0,517.6" fill="none" stroke="#8c2d04" stroke-width="3.0" stroke-linecap="round" stroke-linejoin="round" />
<circle cx="648.0" cy="465.0" r="4.8" fill="white" stroke="#8c2d04" stroke-width="2.2" />
<circle cx="717.6" cy="470.3" r="4.8" fill="white" stroke="#8c2d04" stroke-width="2.2" />
<circle cx="787.2" cy="479.7" r="4.8" fill="white" stroke="#8c2d04" stroke-width="2.2" />
<circle cx="856.8" cy="489.2" r="4.8" fill="white" stroke="#8c2d04" stroke-width="2.2" />
<circle cx="926.4" cy="496.6" r="4.8" fill="white" stroke="#8c2d04" stroke-width="2.2" />
<circle cx="996.0" cy="517.6" r="4.8" fill="white" stroke="#8c2d04" stroke-width="2.2" />
<line x1="999.0" y1="517.6" x2="1002.0" y2="517.6" stroke="#8c2d04" stroke-width="1.6" />
<text x="1008.0" y="521.6" font-size="13" font-weight="700" text-anchor="start" fill="#8c2d04">93.6%</text>
<polyline points="648.0,465.0 717.6,466.1 787.2,469.2 856.8,475.5 926.4,478.7 996.0,481.8" fill="none" stroke="#16697a" stroke-width="3.0" stroke-linecap="round" stroke-linejoin="round" stroke-dasharray="10 6" />
<rect x="643.5" y="460.5" width="9.0" height="9.0" fill="white" stroke="#16697a" stroke-width="2.0" />
<rect x="713.1" y="461.6" width="9.0" height="9.0" fill="white" stroke="#16697a" stroke-width="2.0" />
<rect x="782.7" y="464.7" width="9.0" height="9.0" fill="white" stroke="#16697a" stroke-width="2.0" />
<rect x="852.3" y="471.0" width="9.0" height="9.0" fill="white" stroke="#16697a" stroke-width="2.0" />
<rect x="921.9" y="474.2" width="9.0" height="9.0" fill="white" stroke="#16697a" stroke-width="2.0" />
<rect x="991.5" y="477.3" width="9.0" height="9.0" fill="white" stroke="#16697a" stroke-width="2.0" />
<line x1="999.0" y1="481.8" x2="1002.0" y2="494.8" stroke="#16697a" stroke-width="1.6" />
<text x="1008.0" y="498.8" font-size="13" font-weight="700" text-anchor="start" fill="#16697a">97.9%</text>
<polyline points="648.0,465.0 717.6,467.1 787.2,471.3 856.8,478.7 926.4,479.7 996.0,480.8" fill="none" stroke="#c77600" stroke-width="3.0" stroke-linecap="round" stroke-linejoin="round" stroke-dasharray="3 5" />
<polygon points="648.0,459.7 653.3,465.0 648.0,470.3 642.7,465.0" fill="white" stroke="#c77600" stroke-width="2.0" />
<polygon points="717.6,461.8 722.9,467.1 717.6,472.4 712.3,467.1" fill="white" stroke="#c77600" stroke-width="2.0" />
<polygon points="787.2,466.0 792.5,471.3 787.2,476.6 781.9,471.3" fill="white" stroke="#c77600" stroke-width="2.0" />
<polygon points="856.8,473.4 862.1,478.7 856.8,484.0 851.5,478.7" fill="white" stroke="#c77600" stroke-width="2.0" />
<polygon points="926.4,474.4 931.7,479.7 926.4,485.0 921.1,479.7" fill="white" stroke="#c77600" stroke-width="2.0" />
<polygon points="996.0,475.5 1001.3,480.8 996.0,486.1 990.7,480.8" fill="white" stroke="#c77600" stroke-width="2.0" />
<line x1="999.0" y1="480.8" x2="1002.0" y2="480.8" stroke="#c77600" stroke-width="1.6" />
<text x="1008.0" y="484.8" font-size="13" font-weight="700" text-anchor="start" fill="#c77600">98.1%</text>
</svg>